<?xml version="1.0" standalone="no"?>
<!DOCTYPE svg PUBLIC "-//W3C//DTD SVG 20010904//EN"
 "http://www.w3.org/TR/2001/REC-SVG-20010904/DTD/svg10.dtd">
<svg version="1.0" xmlns="http://www.w3.org/2000/svg"
 width="303.000000pt" height="360.000000pt" viewBox="0 0 303.000000 360.000000"
 preserveAspectRatio="xMidYMid meet">

<g transform="translate(0.000000,360.000000) scale(0.100000,-0.100000)"
fill="#000000" stroke="none">
<path d="M2765 3483 c-59 -16 -91 -67 -82 -132 l5 -39 -147 -83 c-222 -125
-553 -325 -579 -349 -20 -19 -22 -27 -16 -87 7 -61 6 -65 -12 -59 -43 13 -165
26 -254 26 -130 0 -272 -23 -397 -65 -57 -19 -107 -35 -109 -35 -2 0 -4 15 -4
34 0 19 -7 41 -15 49 -24 25 -395 164 -697 263 l-118 38 0 49 c0 42 -5 54 -34
83 -26 26 -42 34 -71 34 -70 0 -119 -48 -119 -116 0 -47 32 -86 85 -104 24 -8
45 -15 47 -16 1 0 16 -81 32 -180 35 -207 108 -577 121 -610 7 -19 31 -30 129
-61 111 -35 120 -40 115 -60 -17 -69 -26 -188 -20 -257 7 -86 44 -224 74 -285
52 -101 151 -193 276 -256 l67 -33 -68 -46 c-52 -35 -71 -43 -85 -35 -23 12
-75 12 -98 -1 -10 -5 -24 -23 -31 -39 -38 -93 75 -164 145 -91 19 19 39 30 57
30 32 0 33 -5 13 -40 -8 -14 -15 -53 -15 -90 0 -37 -7 -76 -15 -90 -27 -48
-13 -124 31 -161 9 -8 37 -21 62 -30 36 -12 48 -21 54 -44 9 -36 -2 -45 -63
-45 -51 0 -90 24 -139 85 -36 45 -37 57 -8 95 15 21 19 33 11 41 -12 12 -170
39 -230 39 l-43 0 0 -119 c0 -66 4 -131 10 -146 9 -24 11 -25 37 -12 25 14 29
12 77 -26 84 -66 148 -91 241 -91 44 -1 94 3 110 8 l30 8 -37 -31 c-60 -52
-75 -141 -33 -205 58 -89 293 -109 435 -38 77 39 100 76 98 161 -1 37 4 79 11
96 l14 30 7 -25 c4 -14 5 -50 2 -80 -4 -50 -1 -59 23 -88 62 -74 206 -113 342
-93 41 6 87 18 102 26 41 21 79 70 87 111 9 47 -19 118 -57 145 -25 18 -29 26
-29 71 0 28 4 67 10 87 5 20 12 48 14 62 5 21 13 28 40 33 46 9 91 53 106 103
11 37 10 46 -10 87 -15 32 -20 55 -15 75 5 26 -4 80 -22 127 -4 11 5 14 38 14
36 0 48 -5 75 -35 40 -44 88 -48 131 -11 39 34 39 98 0 132 -34 29 -85 32
-118 5 -22 -18 -23 -18 -86 22 l-63 39 81 50 c100 62 206 161 259 242 111 169
130 418 48 644 -17 46 -29 84 -27 86 2 1 39 19 81 39 l77 37 6 53 c4 28 21
232 38 452 l32 400 25 4 c40 5 79 39 91 79 24 82 -54 166 -136 145z m-925
-1010 c106 -54 147 -151 102 -240 -22 -43 -68 -87 -102 -98 -13 -4 -20 -15
-20 -30 0 -18 -7 -26 -24 -31 -32 -8 -46 2 -46 32 0 13 -4 24 -10 24 -5 0 -10
-13 -10 -30 0 -20 -5 -30 -15 -30 -10 0 -15 10 -15 30 0 41 -16 38 -24 -6 -6
-31 -10 -35 -34 -32 -19 2 -28 10 -30 24 -2 17 -12 23 -44 27 -76 10 -138 79
-138 152 0 142 109 234 281 235 63 0 84 -4 129 -27z m346 -413 c81 -39 177
-132 209 -202 76 -165 37 -370 -88 -462 -68 -50 -185 -108 -269 -134 -104 -32
-287 -54 -459 -56 l-155 -1 -85 42 c-116 58 -180 117 -224 206 -45 91 -54 167
-31 257 30 117 120 223 242 283 l60 29 168 -41 c92 -22 183 -41 202 -41 25 0
54 13 97 42 34 23 91 59 127 81 76 45 106 44 206 -3z m254 -909 c15 -29 12
-49 -11 -72 -31 -31 -89 -5 -89 42 0 45 79 68 100 30z m-1554 -46 c21 -33 6
-71 -31 -81 -34 -8 -53 0 -67 30 -16 36 11 76 52 76 21 0 35 -8 46 -25z m1269
-25 c42 -44 47 -120 10 -174 -31 -46 -21 -69 19 -43 22 15 25 15 30 1 19 -49
-25 -124 -72 -124 -16 0 -20 10 -26 71 -10 109 -60 230 -87 213 -10 -6 -12 46
-3 70 4 12 20 16 53 16 39 0 52 -5 76 -30z m-887 -109 c45 -73 45 -74 25 -90
-11 -9 -25 -25 -31 -35 -9 -17 -10 -16 -16 12 -9 37 -32 60 -47 45 -7 -7 -7
-23 1 -50 34 -112 -70 -209 -174 -162 -30 14 -60 72 -51 99 7 23 18 25 46 10
29 -16 36 13 11 45 -42 53 -40 123 5 176 25 29 27 30 106 27 l81 -3 44 -74z
m512 10 c67 -28 124 -52 126 -54 3 -2 0 -16 -6 -31 -7 -20 -6 -36 5 -62 23
-55 91 -71 140 -32 l28 22 -6 -100 c-3 -54 -13 -121 -23 -148 -13 -38 -14 -53
-6 -67 9 -14 8 -21 -3 -33 -22 -22 -18 -32 15 -46 66 -27 99 -105 70 -161 -29
-53 -171 -82 -294 -59 -73 14 -156 60 -157 87 0 10 -1 50 -2 88 -2 78 -25 129
-55 123 -9 -2 -30 -29 -46 -60 -22 -46 -28 -72 -30 -129 -1 -69 -2 -73 -36
-100 -91 -74 -322 -79 -392 -9 -40 41 -39 97 3 145 17 19 37 35 45 35 20 0 29
27 14 45 -8 10 -10 30 -6 57 5 33 2 53 -14 83 -23 44 -25 65 -8 65 25 0 77 52
93 94 l17 45 25 -30 c53 -62 153 -24 153 59 0 21 -5 43 -10 48 -7 7 30 37 112
91 68 45 123 82 124 82 1 1 56 -21 124 -48z m257 -27 c-2 -3 -11 -2 -19 1 -10
4 -13 15 -10 32 l5 26 14 -27 c8 -15 13 -30 10 -32z m-15 -41 c34 -30 12 -103
-31 -103 -29 0 -61 30 -61 57 0 54 54 81 92 46z m-632 -72 c32 -61 -30 -117
-84 -78 -21 16 -24 60 -6 82 18 22 77 19 90 -4z"/>
<path d="M1812 2308 c-15 -15 -16 -63 -2 -89 14 -25 55 -24 73 2 35 49 -30
128 -71 87z"/>
<path d="M1520 2273 c-13 -17 -20 -38 -18 -57 2 -26 8 -32 31 -34 36 -4 55 12
63 54 12 63 -37 86 -76 37z"/>
<path d="M2245 1971 c-3 -11 -44 -45 -90 -75 -55 -36 -85 -63 -85 -74 0 -40
33 -129 58 -154 53 -56 143 -26 157 53 3 19 -1 58 -8 87 -13 47 -13 58 0 84
18 34 9 50 -11 22 -22 -29 -32 -8 -13 25 9 16 17 34 17 40 0 18 -18 12 -25 -8z"/>
<path d="M1200 1860 c0 -6 11 -22 25 -36 29 -29 24 -55 -6 -28 -16 14 -19 15
-19 2 0 -8 9 -23 19 -32 11 -10 17 -25 14 -37 -3 -10 -2 -44 2 -76 9 -71 45
-113 99 -113 70 0 113 80 99 186 l-5 40 -88 33 c-49 18 -96 41 -106 52 -19 21
-34 25 -34 9z"/>
<path d="M1730 1600 c-40 -40 -12 -90 51 -90 66 0 103 55 63 94 -23 23 -89 21
-114 -4z m85 -14 c28 -20 12 -46 -29 -46 -38 0 -49 10 -40 34 5 13 16 19 45
25 3 0 14 -5 24 -13z"/>
<path d="M1880 1465 c0 -8 -15 -24 -32 -36 -41 -25 -100 -20 -133 11 -13 12
-25 17 -29 12 -9 -15 39 -52 76 -59 49 -7 104 13 128 47 24 34 25 40 5 40 -8
0 -15 -7 -15 -15z"/>
</g>
</svg>
